<?xml version="1.0" encoding="UTF-8"?>
<svg id="Layer_1" data-name="Layer 1" xmlns="http://www.w3.org/2000/svg" viewBox="0 0 156.99 36.29">
  <defs>
    <style>
      .art-logo-bg {
        fill: #0051ff;
      }
    </style>
  </defs>
  <path id="Logo_2" data-name="Logo 2" class="art-logo-bg" d="M10.24,31.86c-.04-2.32,1.82-4.23,4.14-4.26,2.32-.04,4.23,1.82,4.26,4.14,.04,2.32-1.82,4.23-4.14,4.26-.02,0-.04,0-.07,0-2.3,.02-4.18-1.83-4.2-4.14Zm134.15-2h0c-.08-.06-.11-.17-.05-.26l.73-1.11c.05-.09,.16-.12,.24-.07,0,0,.01,0,.02,.01h0c.6,.48,1.34,.75,2.11,.77,.58,0,1.09-.26,1.09-.74,0-1.22-4.02-1.06-4.02-3.68,0-1.52,1.38-2.4,3.16-2.4,.94-.03,1.86,.25,2.62,.8h0c.08,.05,.12,.16,.08,.25l-.59,1.17c-.04,.09-.14,.14-.23,.1,0,0-.02,0-.03-.01h0c-.55-.38-1.21-.58-1.88-.58-.54,0-1.05,.22-1.05,.74,0,1.15,4.02,1.01,4.02,3.63,0,1.36-1.2,2.45-3.16,2.45-1.12,.02-2.2-.36-3.07-1.06h0Zm-9.12-1.96v-5.13c0-.1,.09-.19,.19-.19,0,0,0,0,0,0h1.68c.1,0,.19,.08,.19,.19,0,0,0,0,0,0v.25h0v4.56c-.02,.8,.62,1.47,1.42,1.48,.03,0,.07,0,.1,0,.3,0,.6-.09,.85-.26,.31-.18,.57-.42,.76-.72,.31-.51,.47-1.08,.47-1.67v-3.63c0-.1,.09-.19,.19-.19,0,0,0,0,0,0h1.68c.1,0,.19,.08,.19,.19v7.53h0v.25c0,.1-.09,.19-.19,.19,0,0,0,0,0,0h-1.6c-.1,0-.19-.08-.19-.19,0,0,0,0,0,0v-.97c0-.07-.04-.09-.08-.03-.59,.85-1.55,1.37-2.59,1.38-1.53,.17-2.9-.93-3.08-2.45-.02-.19-.02-.38,0-.58h0Zm-41.91-1.24c0-2.51,1.34-4.27,4-4.27,2.04-.09,3.77,1.49,3.86,3.53,0,.11,0,.23,0,.34,0,.2-.02,.39-.05,.59-.02,.14-.09,.19-.22,.19h-5.46s-.02,.02-.02,.03c.11,1.27,1.21,2.21,2.48,2.13,.8-.05,1.57-.32,2.23-.78,.08-.05,.19-.03,.25,.05,0,0,0,.02,.01,.02l.61,1.12c.04,.09,.02,.19-.07,.25-.92,.69-2.04,1.06-3.18,1.06-2.32,.13-4.31-1.64-4.44-3.96,0-.1,0-.2,0-.3Zm2.18-1.06s0,.06,.04,.06h3.52s.05-.02,.05-.05c0,0,0,0,0,0-.06-.96-.88-1.69-1.83-1.64-1.03,0-1.57,.62-1.77,1.64h0Zm-25.32,1.06c0-2.51,1.34-4.27,4.01-4.27,2.04-.09,3.77,1.49,3.86,3.53,0,.11,0,.23,0,.34,0,.2-.02,.39-.05,.59-.02,.14-.09,.19-.22,.19h-5.46s-.02,.02-.02,.03c.11,1.27,1.21,2.21,2.48,2.13,.8-.05,1.57-.32,2.23-.78,.08-.05,.19-.03,.25,.05,0,0,0,.02,.01,.02l.61,1.12c.04,.09,.02,.19-.07,.25-.92,.69-2.04,1.06-3.18,1.06-2.32,.13-4.31-1.65-4.44-3.97,0-.1,0-.2,0-.3h0Zm2.18-1.06s0,.06,.04,.06h3.52s.05-.02,.05-.05c0,0,0,0,0,0-.06-.96-.88-1.69-1.83-1.64-1.03,0-1.57,.62-1.77,1.64h0Zm-26.19,1.06c0-2.51,1.34-4.27,4-4.27,2.04-.1,3.77,1.48,3.87,3.52,0,.12,0,.23,0,.35,0,.2-.02,.39-.05,.59-.02,.14-.09,.19-.22,.19h-5.47s-.02,.02-.02,.03c.11,1.27,1.21,2.21,2.48,2.13,.8-.05,1.57-.32,2.23-.78,.08-.05,.19-.03,.25,.05,0,0,.01,.02,.01,.03l.62,1.12c.04,.09,.02,.19-.07,.25-.92,.68-2.04,1.06-3.19,1.06-2.32,.13-4.31-1.64-4.44-3.96,0-.1,0-.2,0-.3Zm2.18-1.06s0,.06,.04,.06h3.52s.05-.02,.05-.05c0,0,0,0,0,0-.06-.96-.88-1.69-1.83-1.64-1.04,0-1.57,.62-1.77,1.64h0Zm63.62,2.22v-7.27c0-.1,.08-.19,.19-.19h1.68c.1,0,.19,.08,.19,.19v1.98c0,.1,.09,.19,.19,.18h1.51c.1,0,.19,.08,.19,.19v1.24c0,.1-.09,.19-.19,.19h-1.51c-.1,0-.19,.08-.19,.19h0v3.16c0,1.26,.92,1.37,1.49,1.37,.09,0,.33-.03,.33-.03,.1,0,.18,.06,.19,.16,0,0,0,.01,0,.02v1.4c0,.1-.07,.17-.19,.21-.24,.05-.49,.07-.74,.07-1.15,0-3.14-.32-3.14-3.05h0Zm39.9-.08v-7.27c0-.1,.09-.19,.19-.18h1.68c.1,0,.19,.08,.19,.18v1.98c0,.1,.09,.19,.19,.19h1.51c.1,0,.19,.08,.19,.19v1.24c0,.1-.09,.19-.19,.19h-1.51c-.1,0-.19,.08-.19,.19v3.16c0,1.26,.92,1.37,1.49,1.37,.09,0,.33-.03,.33-.03,.1,0,.18,.06,.19,.16,0,0,0,.01,0,.02v1.4c0,.1-.07,.17-.19,.21-.24,.05-.49,.07-.74,.07-1.15,0-3.14-.31-3.14-3.05h0Zm-96.53,0v-7.27c0-.1,.09-.19,.19-.18h1.68c.1,0,.19,.08,.19,.18h0v1.98c0,.1,.08,.19,.19,.19h1.51c.1,0,.19,.08,.19,.18v1.24c0,.1-.08,.19-.19,.19h-1.51c-.1,0-.19,.08-.19,.18v3.16c0,1.26,.92,1.37,1.49,1.37,.09,0,.33-.03,.33-.03,.1,0,.18,.06,.19,.16,0,0,0,.01,0,.02v1.4c0,.1-.07,.17-.19,.21-.24,.05-.49,.07-.74,.07-1.15,0-3.14-.32-3.14-3.05h0Zm73.95,3c-.1,0-.19-.08-.19-.19v-7.79c0-.1,.09-.19,.19-.18h1.69c.1,0,.19,.08,.19,.18,0,0,0,0,0,0v.97s.04,.06,.07,.01h0c.54-.81,1.44-1.32,2.41-1.36,.2,0,.24,0,.25,0,.11,0,.19,.09,.19,.2v1.59c0,.1-.07,.18-.17,.18,0,0-.02,0-.02,0h-.04c-.51-.05-1.02,.06-1.46,.3-.31,.17-.57,.42-.76,.72-.27,.4-.43,.87-.47,1.35v3.82c0,.1-.08,.19-.19,.19h-1.69Zm-5.52,0c-.1,0-.19-.08-.19-.19h0v-9.2c0-.1-.09-.19-.19-.18h-3.4c-.1,0-.19-.08-.19-.19v-1.4c0-.1,.09-.19,.19-.19h9.28c.1,0,.19,.08,.19,.19v1.4c0,.1-.09,.19-.19,.19h-3.4c-.1,0-.19,.08-.19,.18v9.2c0,.1-.08,.19-.19,.19h-1.72Zm-33.64,0c-.1,0-.19-.08-.19-.19,0,0,0,0,0,0v-4.81c0-.91-.32-1.48-1.16-1.48-.3,0-.6,.09-.85,.26-.31,.18-.57,.42-.76,.72-.18,.28-.31,.59-.37,.91-.05,.26-.08,.52-.08,.78v3.61c0,.1-.09,.19-.19,.19,0,0,0,0,0,0h-1.68c-.1,0-.19-.08-.19-.19h0v-4.81c0-.91-.32-1.48-1.16-1.48-.3,0-.6,.09-.85,.26-.31,.18-.57,.42-.76,.72-.31,.51-.47,1.08-.47,1.67v3.63c0,.1-.09,.19-.19,.19,0,0,0,0,0,0h-1.67c-.1,0-.19-.08-.19-.19,0,0,0,0,0,0v-7.77c0-.11,.09-.19,.19-.19h1.6c.11,0,.19,.08,.19,.19h0v.2h0v.88c0,.06,.04,.09,.08,.03,.47-.88,1.37-1.44,2.36-1.49,1.12-.11,2.2,.5,2.66,1.53,0,.01,.02,.02,.03,.02,.02,0,.05-.01,.06-.03,.52-.92,1.49-1.49,2.54-1.52,1.47-.16,2.79,.91,2.94,2.38,.02,.21,.02,.43,0,.65v5.13c0,.11-.09,.19-.19,.19h-1.68Zm-29.03,0c-.1,0-.19-.08-.19-.19v-7.78c0-.1,.09-.19,.19-.19h1.68c.1,0,.19,.08,.19,.19v7.78c0,.1-.09,.19-.19,.19h-1.68Zm-17.25,0c-.11,0-.22-.07-.28-.16l-2.11-3.91c-.06-.1-.16-.16-.28-.16h-1.64c-.1,0-.19,.08-.19,.19v3.86c0,.1-.09,.19-.19,.18h-1.72c-.1,0-.19-.08-.19-.18v-10.98c0-.1,.09-.19,.19-.19h3.53c.79-.06,1.58,.05,2.32,.32,1.21,.54,1.96,1.78,1.88,3.1,.05,1.3-.67,2.51-1.85,3.07l-.04,.02s-.01,.06-.01,.06c.04,.07,.17,.28,.24,.4h0c.06,.08,.14,.22,.19,.31l2.19,3.91c.05,.09,0,.16-.1,.16h-1.95Zm-4.49-9.38v3.18c0,.1,.08,.19,.19,.19h1.69c.91,.09,1.72-.58,1.81-1.49,0-.1,.01-.2,0-.3,0-1.09-.47-1.76-2.11-1.76h-1.4c-.1,0-.19,.08-.19,.18h0Zm68.97,9.39c-.1,0-.19-.08-.19-.19h0v-4.81c.02-.8-.62-1.47-1.42-1.48-.03,0-.06,0-.1,0-.3,0-.6,.09-.86,.26-.31,.18-.57,.42-.76,.72-.31,.51-.47,1.08-.47,1.67v3.63c0,.1-.09,.19-.19,.19h-1.68c-.1,0-.19-.08-.19-.19h0v-7.78c0-.11,.09-.19,.19-.19h1.6c.11,0,.19,.08,.19,.19h0v.97c0,.07,.04,.09,.08,.03,.59-.85,1.55-1.37,2.59-1.38,1.53-.17,2.9,.93,3.07,2.45,.02,.19,.02,.38,0,.57v5.13c0,.1-.09,.19-.19,.19,0,0,0,0,0,0h-1.68Zm-43.4,0c-.1,0-.19-.08-.19-.18h0v-7.79c0-.1,.09-.19,.19-.19h1.69c.1,0,.19,.08,.19,.19v.97s.04,.05,.07,.01h0c.53-.81,1.43-1.32,2.41-1.36,.2,0,.25,0,.25,0,.11,0,.19,.09,.19,.2v1.59c0,.1-.07,.18-.17,.18,0,0-.01,0-.02,0h-.04c-.51-.05-1.02,.06-1.46,.3-.31,.17-.56,.42-.75,.72-.27,.4-.43,.87-.47,1.35v3.82c0,.1-.09,.19-.19,.18h-1.69ZM0,18.55c0-.84,.26-1.67,.75-2.36L10.93,1.87C12.24-.07,14.87-.58,16.81,.72c.43,.29,.81,.66,1.11,1.09h0l10.22,14.38c.49,.69,.75,1.51,.75,2.36-.04,2.32-1.96,4.18-4.28,4.14-1.35-.02-2.61-.7-3.39-1.81l-7.02-9.87c-.8-1.08-2.06-1.72-3.4-1.72-2.3-.02-4.18,1.83-4.2,4.14,0,.92,.31,1.81,.88,2.53,.6,.73,.93,1.65,.93,2.6-.02,2.3-1.9,4.15-4.2,4.14,0,0,0,0,0,0C1.9,22.7,.02,20.85,0,18.55c0,0,0,0,0,0Zm60.9,1.8c-.01-.61,.47-1.11,1.07-1.12,.61-.01,1.11,.47,1.12,1.07,.01,.61-.47,1.11-1.07,1.12,0,0-.02,0-.02,0-.6,0-1.09-.47-1.1-1.07,0,0,0,0,0,0h0Zm30.78-8c0-2.59,3.55-2.77,4.9-2.77h.08c.09,0,.16-.05,.19-.13-.01-1.05-.69-1.42-1.59-1.42-.76,.04-1.49,.28-2.13,.69h0c-.09,.04-.2,0-.24-.08,0,0,0,0,0,0l-.6-1.13c-.04-.09-.01-.19,.07-.24h.01c.92-.59,1.99-.91,3.09-.91,2.03,0,3.25,1.04,3.4,2.86,.01,.11,.04,.58,.04,.68v4.62c0,.1-.09,.19-.19,.19h-1.6c-.1,0-.19-.08-.19-.18h0v-.93c0-.06-.07-.08-.09-.03h0c-.49,.83-1.38,1.34-2.34,1.34-1.42,.12-2.67-.94-2.79-2.36,0-.06,0-.12,0-.19h0Zm2.08-.09c.02,.61,.53,1.08,1.14,1.06,.04,0,.08,0,.12-.01,1.05-.17,1.83-1.06,1.86-2.13h0c0-.15-.05-.2-.22-.2h-.14c-1.06,0-2.76,.14-2.76,1.27h0Zm-18.93,.1c0-2.59,3.55-2.77,4.9-2.77h.08c.09,0,.17-.05,.19-.13,0-1.06-.68-1.42-1.58-1.42-.76,.04-1.49,.28-2.13,.69h0c-.09,.04-.2,0-.24-.08,0,0,0,0,0,0l-.6-1.12c-.04-.09-.01-.19,.07-.24h.01c.92-.59,1.99-.91,3.09-.91,2.03,0,3.25,1.04,3.4,2.86,.01,.11,.04,.58,.04,.68v4.62c0,.1-.08,.19-.19,.19,0,0,0,0,0,0h-1.6c-.1,0-.19-.08-.19-.18h0v-.93c0-.06-.07-.08-.09-.03h0c-.49,.83-1.38,1.34-2.34,1.34-1.42,.12-2.67-.93-2.8-2.36,0-.06,0-.13,0-.19h0Zm2.08-.09c.02,.61,.53,1.08,1.14,1.06,.04,0,.08,0,.12-.01,1.05-.17,1.83-1.06,1.86-2.13h0c0-.15-.05-.2-.22-.2h-.14c-1.06,0-2.76,.14-2.76,1.27h0Zm-20.49,1.57h0c-.08-.06-.11-.17-.05-.26l.73-1.11c.05-.09,.16-.12,.24-.07,0,0,.02,0,.02,.02h0c.6,.48,1.34,.75,2.11,.77,.58,0,1.09-.26,1.09-.73,0-1.21-4.02-1.05-4.02-3.68,0-1.52,1.38-2.4,3.16-2.4,.94-.03,1.86,.25,2.62,.8h0c.08,.05,.12,.16,.08,.25l-.59,1.17c-.04,.09-.14,.14-.23,.1,0,0-.02,0-.03-.01-.55-.38-1.21-.59-1.88-.58-.54,0-1.06,.22-1.06,.73,0,1.15,4.02,1.01,4.02,3.63,0,1.36-1.2,2.45-3.16,2.45-1.12,.01-2.2-.36-3.07-1.06Zm-9.12-1.96V6.73c0-.11,.09-.19,.19-.19h1.68c.11,0,.19,.08,.19,.19h0v.25h0v4.56c-.02,.8,.62,1.47,1.42,1.48,.03,0,.06,0,.1,0,.3,0,.6-.09,.85-.26,.31-.18,.57-.42,.76-.72,.3-.51,.47-1.08,.47-1.67v-3.63c0-.11,.09-.19,.19-.19h1.68c.11,0,.19,.08,.19,.19,0,0,0,0,0,0v.25h0v7.28h0v.24c0,.1-.09,.19-.19,.19,0,0,0,0,0,0h-1.6c-.1,0-.19-.08-.19-.19,0,0,0,0,0,0v-.2h0v-.78c0-.06-.04-.09-.08-.03-.58,.85-1.55,1.37-2.59,1.38-1.53,.17-2.9-.93-3.07-2.45-.02-.19-.02-.38,0-.57Zm16.65-.16V4.43c0-.1,.09-.19,.19-.19h1.68c.1,0,.19,.08,.19,.19h0v1.97c0,.1,.09,.19,.19,.18h1.51c.1,0,.19,.08,.19,.19v1.24c0,.1-.09,.19-.19,.19h-1.51c-.1,0-.19,.08-.19,.19v3.16c0,1.26,.92,1.37,1.49,1.37,.09,0,.33-.03,.33-.03,.1,0,.18,.06,.19,.16,0,0,0,.01,0,.02v1.39c0,.1-.07,.17-.19,.21-.24,.05-.49,.07-.74,.07-1.15,0-3.14-.32-3.14-3.05h0Zm19.88,.4V3.47c0-.1,.09-.19,.19-.19h1.67c.1,0,.19,.08,.19,.19V11.79c0,.78,.24,1.05,.65,1.11,0,0,.17,.01,.3,0,.09-.01,.18,.06,.19,.15,0,0,0,.01,0,.02v1.41c0,.1-.09,.19-.19,.2-.13,.01-.3,.02-.3,.02h-.15c-1.14,.01-2.55-.28-2.55-2.61h0Zm22.71,2.6c-.1,0-.19-.08-.19-.19,0,0,0,0,0,0v-4.81c.02-.8-.62-1.47-1.42-1.48-.03,0-.07,0-.1,0-.3,0-.6,.09-.85,.26-.31,.18-.57,.42-.76,.72-.31,.51-.47,1.08-.47,1.68v3.63c0,.1-.09,.19-.19,.19,0,0,0,0,0,0h-1.68c-.11,0-.19-.08-.19-.19V6.97h0v-.25c0-.11,.09-.19,.19-.19h1.6c.1,0,.19,.08,.19,.19h0v.97c0,.06,.04,.09,.08,.03,.58-.85,1.55-1.37,2.58-1.38,1.53-.17,2.9,.93,3.07,2.45,.02,.19,.02,.38,0,.57v5.13c0,.1-.09,.19-.19,.19,0,0,0,0,0,0h-1.68Zm-18.02,0c-.1,0-.19-.08-.19-.19V6.72c0-.1,.09-.19,.19-.18h1.68c.1,0,.19,.08,.19,.18v7.78c0,.1-.08,.19-.19,.19,0,0,0,0,0,0h-1.68Zm-43.79,0c-.11,0-.21-.07-.25-.18l-.86-2.56c-.04-.1-.14-.17-.25-.18h-3.66c-.11,0-.21,.07-.25,.18l-.86,2.56c-.04,.1-.14,.17-.25,.18h-1.78c-.07,0-.13-.04-.14-.11,0-.02,0-.04,.01-.07l3.93-11c.04-.1,.14-.17,.25-.17h1.81c.11,0,.21,.07,.25,.17l3.93,11c.03,.06,0,.14-.06,.16-.02,0-.04,.01-.07,.01h-1.78Zm-3.24-8.77l-1.34,4.01c-.03,.06,0,.14,.07,.17,.02,0,.04,.01,.06,0h2.54c.07,0,.13-.04,.14-.11,0-.02,0-.04,0-.06l-1.34-4.01s-.04-.07-.06-.07-.05,.03-.06,.07Zm28.23,8.77c-.1,0-.19-.08-.19-.19V6.72c0-.1,.09-.19,.19-.19h0s1.68,0,1.68,0c.1,0,.19,.08,.19,.18v.97s.04,.05,.07,.01h0c.54-.81,1.43-1.32,2.41-1.36,.2,0,.25,0,.25,0,.11,0,.19,.09,.19,.2v1.59c0,.1-.07,.18-.17,.18,0,0-.02,0-.02,0h-.04c-.51-.05-1.02,.06-1.46,.3-.31,.17-.57,.42-.75,.72-.27,.4-.43,.87-.47,1.35v3.81c0,.1-.09,.19-.19,.19h-1.69Zm18.54-10.4c-.01-.61,.47-1.11,1.08-1.12s1.11,.47,1.12,1.08c.01,.61-.47,1.11-1.08,1.12,0,0-.02,0-.02,0-.6,0-1.09-.48-1.09-1.08h0Z"/>
</svg>