<?xml version="1.0" encoding="utf-8"?>
<!-- Generator: Adobe Illustrator 25.2.0, SVG Export Plug-In . SVG Version: 6.00 Build 0)  -->
<svg version="1.1" xmlns="http://www.w3.org/2000/svg" xmlns:xlink="http://www.w3.org/1999/xlink" x="0px" y="0px"
	 viewBox="0 0 7000 1500" enable-background="new 0 0 7000 1500" xml:space="preserve">
	<path fill="#ffffff" d="M4580.5,860.8c9-34.4,14.7-59.7,17.2-86.7c14.7-165.2-72.8-309.2-287.9-309.2
		c-247.9,0-411.5,133.3-481,391.8c0,0-19.6,71.2-29.4,109.6c-9,34.4-16.4,69.5-18.8,94.1c-14.7,166.1,72,315.7,287.9,315.7
		c249.5,0,408.2-131.7,479.3-392.6L4580.5,860.8z M4386.7,787.2c-2.5,21.3-4.9,44.2-12.3,69.5l-35.2,126.8
		c-39.3,148.1-113.7,215.1-224.1,215.1c-92.4,0-134.2-50.7-126.8-144c1.6-13.9,3.3-29.4,17.2-83.4c6.5-31.1,30.3-114.5,30.3-114.5
		c43.4-155.4,130.1-213.5,227.4-213.5C4354.8,643.3,4394.9,694,4386.7,787.2z M798.9,1224c-13.1,42.5-27.8,99-27.8,99
		c-4.9,21.3-15.5,27-39.3,33.5c-51.5,9.8-257.7,9.8-341.1,9.8c-144.8,0-266.7-103.1-215.1-297.8c69.5-266.7,240.5-917.8,240.5-917.8
		h217.6l-237.2,904.7c-3.3,18.8-6.5,36.8-7.4,52.4c-5.7,62.2,21.3,81.8,95.7,81.8H776C785.8,1189.7,805.5,1197,798.9,1224z
		 M5516.3,990.9H6030c22.1,0,36-13.1,41.7-38.4c-0.8,1.6,4.9-18.8,13.9-54c11.5-49.9,16.4-63.8,22.1-110.4
		c14.7-184.9-71.2-323.1-279.8-323.1c-242.1,0-407.4,108.8-486.7,403.3c0,0-12.3,43.4-23.7,90c-9.8,43.4-16.4,89.2-18,102.3
		c-19.6,238,144,315.7,283.8,315.7c141.5,0,211.9-7.4,319-27c30.3-3.3,36-14.7,43.4-40.1c0,0,30.3-127.6,31.9-131.7
		c-72.8,11.5-210.2,21.3-324.7,21.3c-118.6,0-156.2-57.3-149.7-143.2C5504.1,1034.3,5510.6,1013,5516.3,990.9z M5780.6,643.3
		c85.9,0,130.1,49.1,121.9,140.7c-1.6,21.3-6.5,40.1-10.6,59.7h-335.4C5585.9,729.1,5652.9,643.3,5780.6,643.3z M6835.8,533.6
		l-22.9,88.3c-4.9,11.5-13.9,35.2-40.9,31.1c-72-11.5-183.2-18.8-247-18.8c-47.4,0-120.2,5.7-126.8,72.8
		c-0.8,22.1,11.5,43.4,41.7,63.8l172.6,128.4c90,64.6,107.2,128.4,100.6,197.1c-18.8,197.1-187.3,279.8-373.8,279.8
		c-52.4,0-186.5-4.1-282.2-30.3c-15.5-3.3-25.4-16.4-20.5-32.7l24.5-98.2c2.5-4.9,13.9-28.6,41.7-25.4
		c73.6,9.8,215.1,16.4,251.1,16.4c76.9,0,136.6-13.9,141.5-86.7c4.1-24.5-7.4-50.7-44.2-76.9l-180-130.9
		c-56.4-41.7-91.6-112.1-85.9-188.1c18-210.2,203.7-258.5,353.4-258.5c95.7,0,190.6,9,274.8,31.1
		C6844,502.6,6835,533.6,6835.8,533.6z M1686.5,508.3c-92.4-27-211-42.5-311.7-42.5c-254.4,0-418,148.1-482.6,394.3
		c-9.8,31.9-22.9,85.9-33.5,135.8c-9.8,42.5-18,83.4-18.8,96.5c-16.4,186.5,89.2,283,233.9,283c75.3,0,157.9-19.6,250.3-87.5
		c0,0-4.1,22.1-9,47.4c-2.5,14.7,3.3,27.8,21.3,27.8H1464c15.5,0,33.5-13.1,39.3-30.3L1708.5,550
		C1715.1,523.8,1710.2,514,1686.5,508.3z M1344.5,1140.6c-73.6,40.9-141.5,66.3-202,66.3c-63,0-106.3-29.4-98.2-118.6
		c3.3-19.6,6.5-40.9,12.3-65.4l42.5-162.8c34.4-129.2,93.3-224.1,229.9-224.1c55.6,0,118.6,4.1,148.1,10.6L1344.5,1140.6z
		 M5243.1,1326.3c10.6,22.9-9,36-22.9,36h-178.3c-18.8,0-32.7-17.2-38.4-31.9l-160.3-375.5l-99,375.5c-3.3,18-22.9,32.7-40.1,32.7
		h-144.8c-19.6,0-27.8-18-23.7-32.7c92.4-343.6,310.8-1179.6,310.8-1179.6h209.4l-181.6,681.4l343.6-338.7
		c13.1-14.7,23.7-19.6,39.3-19.6h188.1c27.8,0,25.4,21.3,9.8,34.4l-415.5,391C5039.4,899.3,5208.8,1252.7,5243.1,1326.3z
		 M3837,641.6c-49.9,0-120.2,1.6-232.3,55.6L3437,1331.2c-4.1,18.8-22.1,33.5-40.1,33.5h-142.3c-23.7,0-30.3-16.4-23.7-38.4
		c34.4-132.5,216-818,216-818c4.1-18,20.4-31.9,38.4-31.9h137.4c18.8,0,28.6,14.7,23.7,31.9l-8.2,31.9
		c94.9-68.7,179.1-75.3,245.4-75.3c4.9,0,28.6,5.7,21.3,30.3c-10.6,43.4-29.4,114.5-29.4,114.5
		C3871.3,627.7,3852.5,641.6,3837,641.6z M2417.8,150l-84.3,324.7c-56.4-6.5-108.8-9-147.2-9c-253.6,0-410.6,108.8-482.6,394.3
		c0,0-23.7,90.8-31.1,121.9c-13.1,55.6-13.9,68.7-14.7,86.7C1640.7,1242,1726.5,1377,1945,1377c101.4,0,221.7-14.7,328-40.1
		c36.8-9,46.6-18,54-42.5l301.8-1143.6L2417.8,150z M2142.9,1197c-31.9,5.7-96.5,9-153,9c-103.1,0-136.6-40.1-128.4-126.8
		c0.8-19.6,4.9-43.4,17.2-98.2c6.5-28.6,31.9-121.9,31.9-121.9c39.3-152.1,94.9-224.9,230.7-224.9c36.8,0,104.7,5.7,146.4,10.6
		L2142.9,1197z M3277.5,860c9-32.7,13.1-63.8,17.2-95.7c13.9-178.3-72-298.6-288.8-298.6c-37.6,0-94.9,3.3-154.6,9l85.1-323.9
		h-208.6c0,0-251.1,957.1-303.5,1150.1c-8.2,28.6,30.3,34.4,33.5,35.2c90.8,24.5,206.1,40.1,306.8,40.1
		c260.1,0,413.9-131.7,481.8-394.3L3277.5,860z M3086.1,766.8c-1.6,28.6-6.5,58.1-17.2,92.4l-31.1,121.9
		c-30.3,117-92.4,224.1-229,224.1c-57.3,0-121.1-4.1-148.9-9l145.6-552.1c47.4-4.1,117.8-9.8,154.6-9.8
		C3064,634.3,3095.1,681.7,3086.1,766.8z"/>
</svg>
