<svg width="653" height="76" viewBox="0 0 653 76" fill="none" xmlns="http://www.w3.org/2000/svg">
<path fill-rule="evenodd" clip-rule="evenodd" d="M15.7904 0V74.5262H0V0H15.7904ZM52.0559 23.1527C59.9245 23.1527 66.5969 25.4644 72.073 30.0879C77.5492 34.7113 80.2872 41.1485 80.2872 49.3996C80.2872 57.6862 77.5049 64.1056 71.9401 68.658C66.3753 73.2103 59.7473 75.4864 52.0559 75.4864C43.7264 75.4864 36.9123 73.0591 31.6134 68.2045C26.3144 63.3499 23.665 57.0461 23.665 49.2929C23.665 41.3974 26.3676 35.067 31.7729 30.3012C37.1782 25.5355 43.9391 23.1527 52.0559 23.1527ZM52.0562 66.0974C59.6058 66.0974 63.3806 60.3893 63.3806 48.9729C63.3806 38.0545 59.6058 32.5953 52.0562 32.5953C48.4408 32.5953 45.6142 34.0357 43.5761 36.9164C41.5381 39.7972 40.519 43.9227 40.519 49.293C40.519 60.496 44.3647 66.0974 52.0562 66.0974ZM140.607 62.0962V70.8986C135.362 73.9571 130.435 75.4864 125.827 75.4864C120.865 75.4864 117.923 73.6015 117.002 69.8316C111.508 73.6015 105.996 75.4864 100.467 75.4864C96.5679 75.4864 93.2539 74.2506 90.5247 71.7788C87.7954 69.307 86.4308 66.4352 86.4308 63.1632C86.4308 58.7887 87.8397 55.2589 90.6576 52.5737C93.4754 49.8886 102.009 46.4299 116.257 42.1977C116.612 36.5784 113.705 33.7688 107.538 33.7688C100.839 33.7688 94.6717 36.5784 89.036 42.1977V29.2876C95.6287 25.1977 102.877 23.1527 110.781 23.1527C124.959 23.1527 132.048 28.2562 132.048 38.4634V61.4027C132.048 63.75 132.916 64.9237 134.653 64.9237C135.964 64.9237 137.949 63.9812 140.607 62.0962ZM116.257 62.3097V50.1465C110.976 51.9959 107.352 53.6585 105.385 55.1345C103.418 56.6104 102.434 58.4864 102.434 60.7626C102.434 62.2208 102.93 63.4744 103.923 64.5236C104.915 65.5728 106.12 66.0973 107.538 66.0973C110.515 66.0973 113.422 64.8348 116.257 62.3097ZM162.937 24.1663V31.3682C167.58 25.8912 173.021 23.1527 179.259 23.1527C184.47 23.1527 188.82 24.8242 192.312 28.1674C195.803 31.5105 197.548 36.2939 197.548 42.5178V74.5262H181.758V43.8515C181.758 37.1297 179.153 33.7688 173.943 33.7688C170.221 33.7688 166.552 36.5429 162.937 42.091V74.5262H147.147V24.1663H162.937ZM244.377 26.887V38.1433C238.351 34.4445 232.769 32.5952 227.629 32.5952C223.837 32.5952 221.94 33.8933 221.94 36.4895C221.94 37.1653 222.339 37.8321 223.137 38.4901C223.934 39.148 226.991 40.535 232.308 42.6511C237.624 44.7673 241.382 47.2123 243.579 49.9864C245.777 52.7605 246.875 55.8012 246.875 59.1088C246.875 64.3369 245.103 68.3734 241.559 71.2186C238.014 74.0638 232.964 75.4864 226.406 75.4864C219.672 75.4864 213.682 74.2595 208.436 71.8055V60.6559C214.887 63.5011 220.292 64.9237 224.652 64.9237C229.756 64.9237 232.308 63.6789 232.308 61.1893C232.308 60.2291 231.838 59.3222 230.899 58.4686C229.96 57.6151 226.796 56.1391 221.409 54.0408C216.021 51.9425 212.335 49.6308 210.35 47.1056C208.365 44.5805 207.373 41.7709 207.373 38.6768C207.373 34.0889 209.278 30.3546 213.088 27.4738C216.898 24.5931 221.923 23.1527 228.161 23.1527C234.151 23.1527 239.556 24.3975 244.377 26.887ZM257.278 65.9907C257.278 63.3944 258.209 61.1627 260.07 59.2956C261.931 57.4284 264.155 56.4948 266.742 56.4948C269.365 56.4948 271.607 57.4284 273.468 59.2956C275.328 61.1627 276.259 63.3944 276.259 65.9907C276.259 68.6225 275.328 70.8631 273.468 72.7124C271.607 74.5618 269.365 75.4865 266.742 75.4865C264.155 75.4865 261.931 74.5618 260.07 72.7124C258.209 70.8631 257.278 68.6225 257.278 65.9907ZM331.977 60.7626V72.1255C325.81 74.3661 320.157 75.4864 315.017 75.4864C306.192 75.4864 299.138 73.1125 293.857 68.3646C288.576 63.6166 285.935 57.3306 285.935 49.5063C285.935 41.8598 288.602 35.556 293.937 30.5947C299.271 25.6333 306.068 23.1527 314.326 23.1527C319.643 23.1527 325.278 24.2552 331.233 26.4602V38.25C326.873 36.0094 322.585 34.8891 318.367 34.8891C313.653 34.8891 309.878 36.205 307.042 38.8368C304.207 41.4686 302.789 44.9895 302.789 49.3996C302.789 53.8452 304.171 57.4283 306.936 60.1491C309.701 62.8698 313.334 64.2301 317.835 64.2301C321.167 64.2301 325.881 63.0743 331.977 60.7626ZM368.449 23.1527C376.318 23.1527 382.99 25.4644 388.467 30.0879C393.943 34.7113 396.681 41.1485 396.681 49.3996C396.681 57.6862 393.898 64.1056 388.334 68.658C382.769 73.2103 376.141 75.4864 368.449 75.4864C360.12 75.4864 353.306 73.0591 348.007 68.2045C342.708 63.3499 340.059 57.0461 340.059 49.2929C340.059 41.3974 342.761 35.067 348.166 30.3012C353.572 25.5355 360.333 23.1527 368.449 23.1527ZM368.449 66.0973C375.999 66.0973 379.774 60.3892 379.774 48.9728C379.774 38.0544 375.999 32.5952 368.449 32.5952C364.834 32.5952 362.007 34.0356 359.969 36.9163C357.931 39.7971 356.912 43.9226 356.912 49.2929C356.912 60.4959 360.758 66.0973 368.449 66.0973ZM421.858 24.1663V30.6213C427.21 25.6422 433.023 23.1527 439.297 23.1527C447.91 23.1527 453.935 26.7269 457.373 33.8755C463.434 26.7269 470.027 23.1527 477.151 23.1527C482.929 23.1527 487.643 24.9131 491.293 28.4341C494.944 31.955 496.77 36.5429 496.77 42.1977V74.5262H480.979V45.0251C480.979 41.4686 480.164 38.7035 478.533 36.7296C476.903 34.7557 474.635 33.7688 471.728 33.7688C467.12 33.7688 462.973 36.614 459.287 42.3044V74.5262H443.55V44.705C443.55 41.1841 442.673 38.4812 440.918 36.5962C439.164 34.7113 436.833 33.7688 433.927 33.7688C429.78 33.7688 425.757 36.0983 421.858 40.7573V74.5262H406.068V24.1663H421.858ZM510.245 65.9907C510.245 63.3944 511.175 61.1627 513.036 59.2956C514.897 57.4284 517.121 56.4948 519.708 56.4948C522.331 56.4948 524.573 57.4284 526.434 59.2956C528.295 61.1627 529.225 63.3944 529.225 65.9907C529.225 68.6225 528.295 70.8631 526.434 72.7124C524.573 74.5618 522.331 75.4865 519.708 75.4865C517.121 75.4865 514.897 74.5618 513.036 72.7124C511.175 70.8631 510.245 68.6225 510.245 65.9907ZM595.358 62.0962V70.8986C590.112 73.9571 585.185 75.4864 580.578 75.4864C575.615 75.4864 572.673 73.6015 571.752 69.8316C566.258 73.6015 560.746 75.4864 555.217 75.4864C551.318 75.4864 548.004 74.2506 545.275 71.7788C542.546 69.307 541.181 66.4352 541.181 63.1632C541.181 58.7887 542.59 55.2589 545.408 52.5737C548.226 49.8886 556.759 46.4299 571.008 42.1977C571.362 36.5784 568.456 33.7688 562.288 33.7688C555.589 33.7688 549.422 36.5784 543.786 42.1977V29.2876C550.379 25.1977 557.627 23.1527 565.531 23.1527C579.709 23.1527 586.798 28.2562 586.798 38.4634V61.4027C586.798 63.75 587.666 64.9237 589.403 64.9237C590.715 64.9237 592.699 63.9812 595.358 62.0962ZM571.007 62.3098V50.1466C565.726 51.996 562.102 53.6586 560.135 55.1346C558.168 56.6105 557.184 58.4866 557.184 60.7627C557.184 62.2209 557.68 63.4745 558.673 64.5237C559.665 65.5729 560.87 66.0975 562.288 66.0975C565.265 66.0975 568.172 64.8349 571.007 62.3098ZM636.508 74.5262V67.3243C631.865 72.7657 626.46 75.4864 620.293 75.4864C614.834 75.4864 610.404 73.7971 607.001 70.4184C603.598 67.0398 601.897 62.363 601.897 56.3881V24.1663H617.687V55.3211C617.687 61.7229 620.328 64.9237 625.609 64.9237C628.587 64.9237 631.13 63.7589 633.239 61.4294C635.348 59.0999 636.402 57.3839 636.402 56.2814V24.1663H652.299V74.5262H636.508Z" fill="#EA1777"/>
</svg>
