<svg width="609" height="49" viewBox="0 0 609 49" fill="none" xmlns="http://www.w3.org/2000/svg">
<path d="M28.9 48.5006C15.8 48.8006 4.89995 38.5006 4.59995 25.4006C4.59995 25.1006 4.59995 24.7006 4.59995 24.4006C4.39995 11.2006 15 0.400617 28.2 0.200617C28.5 0.200617 28.7 0.200617 29 0.200617C42.1 -0.199383 53 10.2006 53.4 23.2006C53.4 23.5006 53.4 23.9006 53.4 24.2006C53.6 37.4006 43 48.3006 29.7 48.4006C29.4 48.5006 29.2 48.5006 28.9 48.5006ZM28.9 7.70062C20.2 7.70062 13.1 14.8006 13.2 23.6006C13.2 23.8006 13.2 24.1006 13.2 24.3006C12.8 33.1006 19.7 40.6006 28.5 41.0006C28.7 41.0006 28.9 41.0006 29.1 41.0006C37.8 41.0006 44.9 33.9006 44.9 25.2006C44.9 25.0006 44.9 24.7006 44.9 24.5006C45.3 15.7006 38.4 8.20059 29.6 7.80059C29.2 7.80059 29.1 7.80062 28.9 7.70062Z" fill="black"/>
<path d="M87.7 20.6005C97.6 22.9005 102.7 26.5004 102.7 34.3004C102.7 43.1004 95.8 48.3004 86 48.3004C78.8 48.3004 71.9 45.7004 66.5 40.8004L71.4 34.9005C75.4 38.8005 80.6 40.9005 86.2 41.0005C91.3 41.0005 94.5 38.7005 94.5 35.1005C94.5 31.5005 92.6 29.9005 84 27.9005C74.1 25.6005 68.5 22.6005 68.5 13.9005C68.5 5.80045 75.2 0.300448 84.4 0.300448C90.6 0.200448 96.6 2.20047 101.3 6.20047L96.9 12.4005C93.3 9.50045 88.9 7.80047 84.2 7.60047C79.4 7.60047 76.6 10.1005 76.6 13.2005C76.6 16.9005 78.7 18.5005 87.7 20.6005Z" fill="black"/>
<path d="M140.7 48.5003C127.7 48.6003 117.1 38.2003 117 25.2003C117 24.9003 117 24.6003 117 24.4003C116.7 11.3003 127 0.500335 140.1 0.200335C140.4 0.200335 140.8 0.200335 141.1 0.200335C147.9 -0.0996645 154.6 2.60032 159.4 7.50032L154.1 13.6003C150.7 10.0003 146 7.90031 141 7.80031C132.1 7.80031 125.6 15.1003 125.6 24.3003C125.6 33.5003 132.1 41.0003 141 41.0003C146.7 41.0003 150.3 38.7003 154.4 34.9003L159.7 40.2003C154.9 45.7003 147.9 48.7003 140.7 48.5003Z" fill="black"/>
<path d="M218.3 47.7012H209.6L204.9 36.4012H182.8L178 47.7012H169.6L190.1 0.701172H197.7L218.3 47.7012ZM193.8 10.5012L185.8 29.2012H201.9L193.8 10.5012Z" fill="black"/>
<path d="M262.9 47.7L251.4 31.4H241.1V47.7H232.9V1H253.7C264.4 1 271 6.69999 271 15.8C271.2 22.6 266.5 28.6 259.9 30L272.5 47.7H262.9ZM253.1 8.5H241.1V24.2H253.1C259 24.2 262.7 21.1 262.7 16.3C262.7 11.5 259.1 8.5 253.1 8.5Z" fill="black"/>
<path d="M365.3 0.900391H372.2L383.7 35.6004L394.8 1.0004H403.4L387.1 48.0004H380.1L368.6 14.5004L357.1 48.0004H350L333.8 1.0004H342.6L353.8 35.6004L365.3 0.900391Z" fill="black"/>
<path d="M439.2 47.7H430.9V29.3L412.4 1H422L435.1 21.7L448.3 1H457.7L439.2 29.1V47.7Z" fill="black"/>
<path d="M470.3 1H478.5V40.2H503V47.7H470.3V1Z" fill="black"/>
<path d="M551.5 8.29999H525.1V20.5H546.6V27.8H525.1V40.3H551.8V47.7H516.9V1H551.5V8.29999Z" fill="black"/>
<path d="M604.2 8.29999H577.8V20.5H599.3V27.8H577.8V40.3H604.5V47.7H569.6V1H604.2V8.29999Z" fill="black"/>
<path d="M303.8 0.200335H303.7C296.9 -0.0996645 290.2 2.60032 285.4 7.50032L290.7 13.6003C297.2 6.40033 308.4 5.80031 315.6 12.3003C316 12.7003 316.5 13.1003 316.9 13.6003L322.1 7.50032C317.2 2.60032 310.6 0.000335477 303.8 0.200335Z" fill="black"/>
</svg>
