<?xml version="1.0" encoding="utf-8"?>
<!-- Generator: Adobe Illustrator 19.2.1, SVG Export Plug-In . SVG Version: 6.00 Build 0)  -->
<svg version="1.1" id="layer" xmlns="http://www.w3.org/2000/svg" xmlns:xlink="http://www.w3.org/1999/xlink" x="0px" y="0px"
	 viewBox="0 0 652 652" style="enable-background:new 0 0 652 652;" xml:space="preserve">
<g id="Layer_2">
	<g id="Layer_1-2">
		<path d="M44.9,346.5c-13.1,0.3-24-10-24.3-23.1c0-0.3,0-0.7,0-1c-0.2-13.2,10.4-24,23.6-24.2c0.3,0,0.5,0,0.8,0
			c13.1-0.4,24,10,24.4,23c0,0.3,0,0.7,0,1c0.2,13.2-10.4,24.1-23.7,24.2C45.4,346.5,45.2,346.5,44.9,346.5 M44.9,305.7
			c-8.7,0-15.8,7.1-15.7,15.9c0,0.2,0,0.5,0,0.7c-0.4,8.8,6.5,16.3,15.3,16.7c0.2,0,0.4,0,0.6,0c8.7,0,15.8-7.1,15.8-15.8
			c0-0.2,0-0.5,0-0.7c0.4-8.8-6.5-16.3-15.3-16.7C45.2,305.8,45.1,305.8,44.9,305.7"/>
		<path d="M103.7,318.6c9.9,2.3,15,5.9,15,13.7c0,8.8-6.9,14-16.7,14c-7.2,0-14.1-2.6-19.5-7.5l4.9-5.9c4,3.9,9.2,6,14.8,6.1
			c5.1,0,8.3-2.3,8.3-5.9s-1.9-5.2-10.5-7.2c-9.9-2.3-15.5-5.3-15.5-14c0-8.1,6.7-13.6,15.9-13.6c6.2-0.1,12.2,1.9,16.9,5.9
			l-4.4,6.2c-3.6-2.9-8-4.6-12.7-4.8c-4.8,0-7.6,2.5-7.6,5.6C92.6,314.9,94.7,316.5,103.7,318.6"/>
		<path d="M156.7,346.5c-13,0.1-23.6-10.3-23.7-23.3c0-0.3,0-0.6,0-0.8c-0.3-13.1,10-23.9,23.1-24.2c0.3,0,0.7,0,1,0
			c6.8-0.3,13.5,2.4,18.3,7.3l-5.3,6.1c-3.4-3.6-8.1-5.7-13.1-5.8c-8.9,0-15.4,7.3-15.4,16.5c0,9.2,6.5,16.7,15.4,16.7
			c5.7,0,9.3-2.3,13.4-6.1l5.3,5.3C170.9,343.7,163.9,346.7,156.7,346.5"/>
		<path d="M234.3,345.7h-8.7l-4.7-11.3h-22.1l-4.8,11.3h-8.4l20.5-47h7.6L234.3,345.7z M209.8,308.5l-8,18.7h16.1L209.8,308.5z"/>
		<path d="M278.9,345.7l-11.5-16.3h-10.3v16.3h-8.2V299h20.8c10.7,0,17.3,5.7,17.3,14.8c0.2,6.8-4.5,12.8-11.1,14.2l12.6,17.7
			L278.9,345.7z M269.1,306.5h-12v15.7h12c5.9,0,9.6-3.1,9.6-7.9C278.7,309.5,275.1,306.5,269.1,306.5"/>
		<polygon points="381.3,298.9 388.2,298.9 399.7,333.6 410.8,299 419.4,299 403.1,346 396.1,346 384.6,312.5 373.1,346 366,346 
			349.8,299 358.6,299 369.8,333.6 		"/>
		<polygon points="455.2,345.7 446.9,345.7 446.9,327.3 428.4,299 438,299 451.1,319.7 464.3,299 473.7,299 455.2,327.1 		"/>
		<polygon points="486.3,299 494.5,299 494.5,338.2 519,338.2 519,345.7 486.3,345.7 		"/>
		<polygon points="567.5,306.3 541.1,306.3 541.1,318.5 562.6,318.5 562.6,325.8 541.1,325.8 541.1,338.3 567.8,338.3 567.8,345.7 
			532.9,345.7 532.9,299 567.5,299 		"/>
		<polygon points="620.2,306.3 593.8,306.3 593.8,318.5 615.3,318.5 615.3,325.8 593.8,325.8 593.8,338.3 620.5,338.3 620.5,345.7 
			585.6,345.7 585.6,299 620.2,299 		"/>
		<path d="M319.8,298.2h-0.1c-6.8-0.3-13.5,2.4-18.3,7.3l5.3,6.1c6.5-7.2,17.7-7.8,24.9-1.3c0.4,0.4,0.9,0.8,1.3,1.3l5.2-6.1
			C333.2,300.6,326.6,298,319.8,298.2"/>
	</g>
</g>
</svg>
