<svg width="82" height="27" viewBox="0 0 82 27" fill="none" xmlns="http://www.w3.org/2000/svg">
<path d="M50.1316 6.77117C49.7388 6.89474 49.3734 7.01437 49.0055 7.12612C47.973 7.46254 46.9209 7.73475 45.855 7.94119C45.5621 7.99131 45.2657 8.01856 44.9685 8.02269C44.7574 8.02641 44.5489 7.97507 44.3635 7.87368C44.178 7.77229 44.022 7.62433 43.9105 7.44426C43.519 6.88992 43.3489 6.20828 43.4339 5.5341C43.5243 4.82683 43.9904 4.35093 44.5587 3.95655C44.962 3.68047 45.4242 3.53981 45.8773 3.38337C48.0247 2.64455 50.1683 1.89915 52.3222 1.18137C52.9423 0.97808 53.5759 0.819051 54.2183 0.705469C54.9581 0.574007 55.7058 0.585838 56.3788 0.992059C57.3072 1.55341 58.0418 2.69187 57.759 4.05383C57.62 4.7273 57.358 5.36913 56.9864 5.94689C54.3012 10.1537 51.6182 14.3658 48.9374 18.5831L48.4634 19.3272C48.5433 19.3075 48.5943 19.2969 48.6388 19.2838C49.799 18.9525 50.9552 18.6133 52.118 18.2913C52.7189 18.1129 53.3445 18.0325 53.9708 18.0533C54.1587 18.0626 54.3453 18.0886 54.5286 18.1309C54.9358 18.2242 55.1833 18.4924 55.3666 18.8671C55.8616 19.9069 55.6783 21.073 54.8848 21.8394C54.5181 22.1944 54.0625 22.3982 53.6015 22.5809C51.6937 23.3355 49.7859 24.0901 47.8676 24.8158C46.5058 25.3324 45.1257 25.8004 43.7586 26.3013C42.9995 26.5834 42.1599 26.5517 41.4239 26.2132C40.7007 25.8998 40.0548 25.4309 39.5318 24.8394C38.7252 23.9376 38.6899 22.8096 39.414 21.7947C40.9478 19.651 42.4828 17.5055 44.0192 15.3583C46.027 12.5424 48.0348 9.72558 50.0425 6.90789C50.0674 6.87371 50.091 6.83427 50.1316 6.77117Z" fill="#FF3D5E"/>
<path d="M66.4422 20.0637C66.4226 19.082 66.6865 18.1448 67.0352 17.2248C67.5577 15.869 68.1585 14.5551 68.8011 13.2571C70.4913 9.84455 72.3277 6.51166 74.3105 3.25839C74.5759 2.80046 74.8961 2.37688 75.264 1.99707C75.567 1.69782 75.917 1.47207 76.3507 1.47207C76.6173 1.47266 76.882 1.517 77.1344 1.60332C77.9847 1.91438 78.7462 2.36982 79.2934 3.12058C79.5135 3.40341 79.6392 3.7488 79.6526 4.10758C79.6648 4.18413 79.6933 4.25713 79.7362 4.32152C80.4494 5.68915 81.1299 7.07779 81.6354 8.53467C81.8356 9.04667 81.958 9.58602 81.9985 10.1346C82.0168 10.6255 81.8679 11.0849 81.7255 11.5429C81.2879 12.9381 80.7054 14.2756 80.1072 15.6051C79.0139 18.0372 77.8345 20.4273 76.6106 22.7964C76.1555 23.7194 75.5388 24.5526 74.7898 25.256C74.1485 25.8401 73.4223 26.2784 72.5589 26.4215C71.1483 26.6538 69.8826 26.3218 68.8351 25.319C67.7628 24.3245 66.9979 23.041 66.6316 21.6217C66.4996 21.1132 66.4359 20.5892 66.4422 20.0637ZM76.4264 9.16992C76.3859 9.24605 76.3611 9.28936 76.3389 9.3353C76.1313 9.75792 75.9236 10.1792 75.7198 10.6032C74.6174 12.8856 73.5346 15.176 72.5851 17.5253C72.2468 18.3562 71.962 19.2093 71.6551 20.0532C71.648 20.0945 71.648 20.1367 71.6551 20.1779C71.6972 20.1603 71.7368 20.1369 71.7726 20.1083C71.8026 20.0723 71.8281 20.0326 71.8484 19.9902C72.8593 18.3041 73.8002 16.5777 74.671 14.8111C75.2032 13.757 75.6764 12.6738 76.0881 11.5666C76.305 11.0112 76.455 10.4318 76.5349 9.84061C76.5671 9.61059 76.5303 9.37612 76.4291 9.16729L76.4264 9.16992Z" fill="#FF3D5E"/>
<path d="M22.1945 10.9646L23.3273 10.7483C23.9298 10.633 24.5322 10.5189 25.1477 10.5766C25.7633 10.6343 26.3016 10.8165 26.701 11.295C27.128 11.8036 27.1122 12.3765 26.8713 12.9624C26.7166 13.3393 26.4399 13.6533 26.0855 13.8538C25.3145 14.2963 24.4999 14.6578 23.6547 14.9327C22.5494 15.3115 21.4283 15.6563 20.319 16.0116C20.2722 16.0228 20.229 16.0458 20.1935 16.0784C20.158 16.1109 20.1313 16.152 20.116 16.1977C19.5503 17.6248 18.9806 19.0511 18.4069 20.4764C18.3938 20.5105 18.3834 20.5446 18.3637 20.6075C18.4148 20.5997 18.4528 20.5984 18.4947 20.5892C20.1763 20.1295 21.8736 19.7332 23.5866 19.4002C23.9957 19.3147 24.4219 19.3819 24.785 19.589C25.0082 19.7088 25.1879 19.8962 25.2984 20.1243C25.4089 20.3524 25.4447 20.6096 25.4005 20.8592C25.2918 21.6051 24.95 22.2435 24.4929 22.8256C24.011 23.443 23.3797 23.8743 22.7092 24.2675C21.4336 25.0082 20.1318 25.6925 18.7199 26.1447C18.0845 26.3692 17.4162 26.4866 16.7424 26.4921C16.4872 26.4863 16.2348 26.4376 15.9959 26.3479C15.165 26.0544 14.4025 25.5945 13.755 24.9964C13.0987 24.3889 12.6979 23.5542 12.634 22.6617C12.5527 21.4157 12.7514 20.1673 13.2154 19.0083C14.0183 16.9108 14.8145 14.799 15.6697 12.716C17.2217 8.93929 18.8129 5.17703 20.3845 1.41084C20.6268 0.831428 21.2279 0.540409 21.9037 0.655768C22.4027 0.739665 22.9004 0.848469 23.4033 0.889106C23.9756 0.934988 24.5519 0.931055 25.1268 0.925811C26.1457 0.916635 27.1659 0.87862 28.1822 0.990046C28.7677 1.05428 29.3387 1.15915 29.8141 1.55766C30.4584 2.09775 30.6575 2.82136 30.3379 3.60003C30.2196 3.9089 30.041 4.19108 29.8126 4.43011C29.5841 4.66914 29.3104 4.86022 29.0073 4.9922C28.0369 5.39222 27.039 5.72167 26.0213 5.97799C25.3966 6.1484 24.7666 6.29653 24.1393 6.45515C24.0516 6.47875 23.973 6.49317 23.9285 6.6059C23.3719 8.0138 22.8061 9.41777 22.2416 10.8244C22.2285 10.8584 22.2194 10.8938 22.1945 10.9646Z" fill="#FF3D5E"/>
<path d="M7.50624 16.0579C7.34521 16.5728 7.19335 17.0719 7.03624 17.5698C6.30702 19.8671 5.59612 22.1671 4.73991 24.425C4.54091 24.9504 4.30656 25.4574 3.88893 25.8568C3.66416 26.0831 3.37096 26.2283 3.05519 26.2696C2.73943 26.311 2.41891 26.2462 2.14376 26.0853C1.51338 25.7592 0.967072 25.2906 0.54785 24.7166C0.133064 24.1603 -0.0572255 23.4675 0.0150062 22.7766C0.0722117 22.4464 0.159868 22.1223 0.276846 21.8085C1.25351 18.6915 2.21708 15.5706 3.22385 12.4615C4.19921 9.44037 5.22169 6.43503 6.42092 3.49406C6.79666 2.57459 7.25095 1.67746 7.66989 0.771129C7.69608 0.714648 7.73535 0.664734 7.76547 0.609566C8.08753 0.00666014 8.56277 -0.0747785 9.11918 0.0500061C9.74236 0.189239 10.2804 0.508425 10.8041 0.860448C10.8295 0.876378 10.8581 0.886209 10.8879 0.889172C10.9176 0.892134 10.9477 0.888148 10.9756 0.877525C11.9143 0.183986 12.9394 0.102547 14.0339 0.413852C14.5822 0.555898 15.0941 0.813356 15.5356 1.16913C16.126 1.66432 16.435 2.32108 16.6183 3.05797C16.8448 3.97743 16.8513 4.90478 16.7806 5.84001C16.6746 7.33029 16.3767 8.80053 15.8943 10.214C15.3575 11.7706 14.627 13.2351 13.5691 14.5171C12.9028 15.3223 12.129 15.9896 11.1275 16.3561C9.92172 16.7987 8.74867 16.6989 7.61098 16.1131L7.50624 16.0579ZM8.90185 11.9282C9.12965 11.7023 9.37054 11.4881 9.58002 11.2478C10.1171 10.6057 10.5735 9.89991 10.939 9.14614C11.3922 8.29185 11.7543 7.39191 12.0191 6.4613C12.0452 6.3641 12.0531 6.26296 12.0727 6.14212C11.5202 6.45079 9.08514 10.859 8.90185 11.9282Z" fill="#FF3D5E"/>
<path d="M60.5873 14.7003C60.1673 14.3698 59.9632 13.9029 59.7787 13.4295C59.3971 12.4326 59.1336 11.3942 58.9936 10.3357C58.8405 9.24326 58.7437 8.14294 58.601 7.04918C58.5212 6.41181 58.4008 5.77837 58.3145 5.14231C58.2673 4.81611 58.2428 4.48701 58.2412 4.1574C58.2412 3.63281 58.6167 3.25249 59.1886 3.16069C59.6767 3.09431 60.1731 3.12597 60.6488 3.2538C61.2329 3.37092 61.7977 3.57004 62.3263 3.84527C63.2422 4.36068 63.7277 5.18821 63.9632 6.17575C64.0731 6.64 64.1111 7.12 64.1817 7.58295C64.1961 7.5541 64.2249 7.49639 64.2524 7.43869C65.1526 5.54231 66.0607 3.64724 66.9518 1.74562C67.3247 0.948245 67.9606 0.575788 68.8857 0.637427C69.6525 0.689886 70.3434 0.981032 71.0159 1.32464C71.3757 1.48925 71.7032 1.7171 71.9829 1.99742C72.2663 2.28089 72.4527 2.64717 72.5153 3.04356C72.5778 3.43995 72.5133 3.84601 72.331 4.2033C71.3156 6.38908 70.2993 8.57485 69.2822 10.7606C68.6044 12.2137 67.8939 13.6459 67.2488 15.1199C66.3237 17.2183 65.57 19.3861 64.8347 21.5579C64.4617 22.6609 64.1215 23.7743 63.7578 24.8812C63.6087 25.391 63.3321 25.8541 62.9544 26.2267C62.7377 26.4398 62.4668 26.5892 62.1712 26.6586C61.8757 26.728 61.5668 26.7147 61.2782 26.6202C60.1123 26.2766 59.1571 25.6392 58.601 24.5127C58.2635 23.8294 58.2425 23.0989 58.3106 22.3514C58.4218 21.1343 58.8614 20.0051 59.2265 18.8576C59.6583 17.4648 60.128 16.0917 60.5873 14.7003Z" fill="#FF3D5E"/>
<path d="M34.2388 4.38294C33.7257 4.38294 33.2454 4.39207 32.7638 4.38294C32.513 4.38271 32.2629 4.35736 32.0172 4.30728C31.7026 4.23737 31.4174 4.07271 31.2004 3.83576C30.9834 3.59881 30.8452 3.3011 30.8047 2.98322C30.7674 2.64697 30.8328 2.30735 30.9924 2.00859C31.1521 1.70984 31.3985 1.46579 31.6996 1.30825C32.2339 1.03923 32.8162 0.877441 33.4134 0.832112C34.0275 0.778628 34.6456 0.777324 35.2623 0.751234C36.0588 0.717318 36.854 0.670355 37.6492 0.650788C38.4038 0.632525 39.1609 0.616871 39.9155 0.650788C40.7723 0.6834 41.6292 0.755148 42.4835 0.833417C43.1826 0.878217 43.8374 1.18942 44.3114 1.70221C44.9596 2.40924 44.9321 3.23107 44.2838 3.93811C43.9204 4.32946 43.4637 4.47426 42.9716 4.51078C42.1357 4.57079 41.2985 4.6047 40.4613 4.62688C40.3762 4.61634 40.2899 4.63503 40.2169 4.67987C40.1439 4.72471 40.0884 4.793 40.0598 4.87343C39.5205 6.06835 38.947 7.24891 38.43 8.45426C36.3794 13.2374 34.443 18.0688 32.6208 22.9485C32.3072 23.786 32.0264 24.6352 31.7127 25.4727C31.5264 25.9697 31.2194 26.3793 30.6997 26.5854C30.3231 26.7254 29.911 26.7401 29.5253 26.6271C28.7858 26.4584 28.1086 26.0874 27.5701 25.5562C27.0163 24.9848 26.7644 24.2751 26.7132 23.4938C26.6502 22.5454 26.8628 21.6479 27.2026 20.7674C27.5136 19.9625 27.7538 19.1302 28.0871 18.3358C29.1264 15.8573 30.1735 13.3787 31.2587 10.9171C32.1943 8.79473 33.1864 6.69581 34.1548 4.58644L34.2388 4.38294Z" fill="#FF3D5E"/>
</svg>
